<svg width="512" height="512" viewBox="0 0 512 512" fill="none" xmlns="http://www.w3.org/2000/svg">
  <!-- Background circle -->
  <circle cx="256" cy="256" r="256" fill="#0f172a"/>

  <!-- Dartboard outer ring -->
  <circle cx="256" cy="256" r="200" fill="#1e293b"/>
  <circle cx="256" cy="256" r="180" fill="#334155"/>

  <!-- Dartboard segments (simplified) -->
  <circle cx="256" cy="256" r="160" fill="#475569"/>
  <circle cx="256" cy="256" r="140" fill="#1e293b"/>

  <!-- Triple ring -->
  <circle cx="256" cy="256" r="120" fill="#22d3ee"/>
  <circle cx="256" cy="256" r="100" fill="#475569"/>

  <!-- Double ring hint -->
  <circle cx="256" cy="256" r="80" fill="#1e293b"/>

  <!-- Bull's eye -->
  <circle cx="256" cy="256" r="40" fill="#06b6d4"/>
  <circle cx="256" cy="256" r="20" fill="#22d3ee"/>

  <!-- Dart -->
  <g transform="translate(256, 100) rotate(45 0 0)">
    <!-- Dart shaft -->
    <rect x="-6" y="-80" width="12" height="160" fill="#94a3b8" rx="2"/>

    <!-- Dart point -->
    <polygon points="0,-80 -8,-60 8,-60" fill="#cbd5e1"/>

    <!-- Dart flight -->
    <path d="M -15,60 L -15,100 L 0,80 Z" fill="#22d3ee"/>
    <path d="M 15,60 L 15,100 L 0,80 Z" fill="#06b6d4"/>

    <!-- Dart grip -->
    <rect x="-8" y="40" width="16" height="30" fill="#475569" rx="1"/>
  </g>
</svg>
